<svg xmlns="http://www.w3.org/2000/svg" style="display:none"><symbol id="calendar" viewbox="0 0 26 28"><path d="M2 26h4.5v-4.5H2V26zm5.5 0h5v-4.5h-5V26zM2 20.5h4.5v-5H2v5zm5.5 0h5v-5h-5v5zm-5.5-6h4.5V10H2v4.5zM13.5 26h5v-4.5h-5V26zm-6-11.5h5V10h-5v4.5zm12 11.5H24v-4.5h-4.5V26zm-6-5.5h5v-5h-5v5zM8 7V2.5q0-.203-.148-.352T7.5 2h-1q-.203 0-.352.148T6 2.5V7q0 .203.148.352T6.5 7.5h1q.203 0 .352-.148T8 7zm11.5 13.5H24v-5h-4.5v5zm-6-6h5V10h-5v4.5zm6 0H24V10h-4.5v4.5zM20 7V2.5q0-.203-.148-.352T19.5 2h-1q-.203 0-.352.148T18 2.5V7q0 .203.148.352t.352.148h1q.203 0 .352-.148T20 7zm6-1v20q0 .812-.594 1.406T24 28H2q-.812 0-1.406-.594T0 26V6q0-.812.594-1.406T2 4h2V2.5q0-1.031.734-1.766T6.5 0h1q1.031 0 1.766.734T10 2.5V4h6V2.5q0-1.031.734-1.766T18.5 0h1q1.031 0 1.766.734T22 2.5V4h2q.812 0 1.406.594T26 6z"/></symbol><symbol id="check" viewbox="0 0 28 28"><path d="M26.109 8.844q0 .625-.438 1.062L12.233 23.344q-.438.438-1.062.438t-1.062-.438l-7.781-7.781q-.438-.438-.438-1.062t.438-1.062l2.125-2.125q.438-.438 1.062-.438t1.062.438l4.594 4.609 10.25-10.266q.438-.438 1.062-.438t1.062.438l2.125 2.125q.438.437.438 1.062z"/></symbol><symbol id="close" viewbox="0 0 22 28"><path d="M20.281 20.656q0 .625-.438 1.062l-2.125 2.125q-.438.438-1.062.438t-1.062-.438L11 19.249l-4.594 4.594q-.438.438-1.062.438t-1.062-.438l-2.125-2.125q-.438-.438-.438-1.062t.438-1.062L6.751 15l-4.594-4.594q-.438-.438-.438-1.062t.438-1.062l2.125-2.125q.438-.438 1.062-.438t1.062.438L11 10.751l4.594-4.594q.438-.438 1.062-.438t1.062.438l2.125 2.125q.438.438.438 1.062t-.438 1.062L15.249 15l4.594 4.594q.438.438.438 1.062z"/></symbol><symbol id="select-down" viewbox="0 0 28 28"><path d="M26.297 12.625L14.703 24.203q-.297.297-.703.297t-.703-.297L1.703 12.625q-.297-.297-.297-.711t.297-.711l2.594-2.578q.297-.297.703-.297t.703.297L14 16.922l8.297-8.297q.297-.297.703-.297t.703.297l2.594 2.578q.297.297.297.711t-.297.711z"/></symbol><symbol id="select-up" viewbox="0 0 28 28"><path d="M26.297 20.797l-2.594 2.578q-.297.297-.703.297t-.703-.297L14 15.078l-8.297 8.297q-.297.297-.703.297t-.703-.297l-2.594-2.578q-.297-.297-.297-.711t.297-.711L13.297 7.797Q13.594 7.5 14 7.5t.703.297l11.594 11.578q.297.297.297.711t-.297.711z"/></symbol><symbol id="tourist" viewbox="0 0 512 512"><path d="M503.172 322.207v-63.081a26.482 26.482 0 0 0-14.639-23.687l-38.326-19.164-57.368-71.711A44.144 44.144 0 0 0 358.372 128H26.483c-9.751 0-17.655 7.904-17.655 17.655v180.966l494.344-4.414z" fill="#ffdc5a"/><path d="M8.828 304.552h494.345a8.829 8.829 0 0 1 8.828 8.828v17.655a8.829 8.829 0 0 1-8.828 8.828H8.828A8.829 8.829 0 0 1 0 331.035V313.38a8.828 8.828 0 0 1 8.828-8.828z" fill="#ffc84b"/><circle cx="83.862" cy="335.448" r="40.46" fill="#ededee"/><path d="M83.862 384c-26.773 0-48.552-21.779-48.552-48.552s21.779-48.552 48.552-48.552 48.552 21.779 48.552 48.552S110.635 384 83.862 384zm0-79.448c-17.039 0-30.897 13.857-30.897 30.897s13.857 30.897 30.897 30.897 30.897-13.857 30.897-30.897-13.857-30.897-30.897-30.897z" fill="#504b5a"/><circle cx="83.862" cy="335.448" r="17.655" fill="#dcdbde"/><circle cx="419.31" cy="335.448" r="40.46" fill="#ededee"/><path d="M419.305 384c-26.773 0-48.552-21.779-48.552-48.552s21.779-48.552 48.552-48.552 48.552 21.779 48.552 48.552S446.078 384 419.305 384zm0-79.448c-17.039 0-30.897 13.857-30.897 30.897s13.857 30.897 30.897 30.897 30.897-13.857 30.897-30.897-13.858-30.897-30.897-30.897z" fill="#504b5a"/><circle cx="419.31" cy="335.448" r="17.655" fill="#dcdbde"/><g fill="#625d6b"><path d="M393.71 145.655h-12.359c-4.364 0-6.856 4.983-4.237 8.474l41.313 55.084a17.655 17.655 0 0 0 14.124 7.062h17.655l-56.496-70.62zM358.4 152.717l42.372 56.497c2.183 2.91.106 7.062-3.531 7.062h-97.103a8.829 8.829 0 0 1-8.828-8.828v-52.966a8.829 8.829 0 0 1 8.828-8.828h44.138a17.659 17.659 0 0 1 14.124 7.063zM44.138 216.276h220.69a8.829 8.829 0 0 0 8.828-8.828v-52.966a8.829 8.829 0 0 0-8.828-8.828H44.138a8.829 8.829 0 0 0-8.828 8.828v52.966a8.829 8.829 0 0 0 8.828 8.828z"/></g><path fill="#504b5a" d="M141.241 145.655h17.655v70.621h-17.655z"/><path d="M450.207 260.414H26.483a8.829 8.829 0 0 1 0-17.656h423.724a8.829 8.829 0 0 1 8.828 8.828 8.83 8.83 0 0 1-8.828 8.828z" fill="#ffc84b"/><path d="M17.655 286.897H8.828v-61.793h8.828a8.829 8.829 0 0 1 8.828 8.828v44.138a8.83 8.83 0 0 1-8.829 8.827z" fill="#ff6464"/><path d="M476.69 251.586v8.828a8.829 8.829 0 0 0 8.828 8.828h17.655v-10.115c0-6.057-2.094-11.779-5.707-16.367h-11.948a8.826 8.826 0 0 0-8.828 8.826z" fill="#ededee"/></symbol></svg>