<svg xmlns="http://www.w3.org/2000/svg" style="display:none"><symbol id="santa-claus" viewbox="0 0 512 512"><path d="M483.634 469.339c0-216.104-178.414-391.298-227.633-391.298-43.068 0-227.633 175.194-227.633 391.298h455.266z" fill="#d84f48"/><path d="M279.405 85.726c-9.367-5.033-17.362-7.684-23.404-7.684-43.068 0-227.633 175.194-227.633 391.298h45.074c0-189.565 142.013-347.644 205.963-383.614z" opacity=".2" fill="#414042"/><path d="M512 479.804c0 11.493-9.356 20.809-20.898 20.809H20.898C9.356 500.613 0 491.297 0 479.804v-74.378c0-11.493 9.356-20.809 20.898-20.809h470.204c11.542 0 20.898 9.316 20.898 20.809v74.378z" fill="#f1f2f2"/><path d="M56.59 479.804v-74.378c0-11.493 9.355-20.809 20.898-20.809h-56.59C9.356 384.617 0 393.933 0 405.426v74.378c0 11.493 9.356 20.809 20.898 20.809h56.59c-11.543 0-20.898-9.316-20.898-20.809z" opacity=".2" fill="#414042"/><circle cx="256" cy="64.739" r="53.352" fill="#f1f2f2"/><path d="M278.096 95.728c-29.467 0-53.356-23.888-53.356-53.357 0-8.888 2.18-17.264 6.024-24.631-16.736 9.002-28.12 26.664-28.12 46.998 0 29.467 23.888 53.356 53.357 53.356 20.57 0 38.408-11.649 47.312-28.703a53.084 53.084 0 0 1-25.217 6.337z" opacity=".2" fill="#414042"/></symbol><symbol id="wine" viewbox="0 0 512 512"><path d="M441.152 20.447C434.291 7.849 421.019 0 406.591 0H105.412C90.981 0 77.711 7.849 70.85 20.447c-19.11 35.077-29.211 75.189-29.211 116 0 60.747 21.84 118.032 61.498 161.303 35.671 38.921 81.901 62.474 131.908 67.627v120.634h41.91V365.377c50.006-5.153 96.237-28.705 131.908-67.627 39.659-43.272 61.499-100.558 61.499-161.303.001-40.811-10.1-80.923-29.21-116z" fill="#f1f2f2"/><path d="M111.764 104.146c-.915 0-1.845-.097-2.776-.299-7.05-1.526-11.527-8.479-10.001-15.53 4.478-20.679 11.786-40.412 21.722-58.649 3.451-6.334 11.385-8.671 17.718-5.222 6.334 3.451 8.672 11.384 5.221 17.717-8.743 16.049-15.179 33.437-19.131 51.682-1.326 6.121-6.737 10.301-12.753 10.301z" fill="#fff"/><path d="M81.425 122.153a209.94 209.94 0 0 0-.497 14.295c0 105.5 78.382 191.025 175.072 191.025s175.073-85.525 175.073-191.025c0-4.81-.176-9.574-.498-14.295H81.425z" fill="#d85149"/><path d="M256 305.584c-38.023 0-74.504-15.534-102.724-43.743-27.742-27.73-45.317-65.478-49.491-106.29-.587-5.741 3.592-10.87 9.332-11.457 5.749-.589 10.87 3.592 11.458 9.332 3.684 36.042 19.125 69.296 43.475 93.635 24.272 24.263 55.507 37.625 87.949 37.625 5.771 0 10.449 4.678 10.449 10.449.001 5.772-4.677 10.449-10.448 10.449z" fill="#fff"/><path d="M373.868 486.01c0 14.354-11.728 25.99-26.193 25.99h-183.35c-14.466 0-26.193-11.636-26.193-25.99s11.728-25.99 26.193-25.99h183.351c14.466 0 26.192 11.636 26.192 25.99z" fill="#f1f2f2"/><g fill="#414142"><path d="M183.027 486.01c0-14.354 11.728-25.99 26.193-25.99h-44.894c-14.466 0-26.193 11.636-26.193 25.99S149.861 512 164.326 512h44.894c-14.466 0-26.193-11.635-26.193-25.99zM135.688 297.751C96.029 254.478 74.19 197.193 74.19 136.447c0-40.812 10.101-80.923 29.211-116C110.262 7.849 123.533 0 137.963 0h-32.551C90.981 0 77.711 7.849 70.85 20.447 51.74 55.523 41.639 95.635 41.639 136.446c0 60.747 21.84 118.032 61.498 161.303 35.671 38.921 81.901 62.474 131.908 67.627h32.55c-50.007-5.152-96.237-28.704-131.907-67.625z" opacity=".1"/></g></symbol></svg>